<?xml version="1.0" encoding="utf-8"?>
<!-- Generator: Adobe Illustrator 26.1.0, SVG Export Plug-In . SVG Version: 6.00 Build 0)  -->
<svg version="1.1" id="Layer_1" xmlns="http://www.w3.org/2000/svg" xmlns:xlink="http://www.w3.org/1999/xlink" x="0px" y="0px"
	 viewBox="0 0 500 500" style="enable-background:new 0 0 500 500;" xml:space="preserve">
<g>
	<g>
		<path d="M361.2,442.7c-2.6-1.9-5.4-3.5-7.7-5.8c-12.3-12.1-24.4-24.3-36.5-36.5c-2-2.1-4.1-2.8-6.9-2.8
			c-47.4,0.1-94.8,0.1-142.2,0c-19.7,0-35.7-12.4-39.8-31.4c-1.3-6.2-1-12.9-1.2-19.3c-0.2-5.5,0-10.9,0-16.9c-5.1,0-10,0.2-14.8,0
			c-8.1-0.4-16.4-0.1-24.1-2c-17.1-4.3-28.6-20-28.6-37.6c-0.1-48.8-0.1-97.5,0-146.3c0-21.8,17.5-39.4,39.4-39.7
			c9.2-0.1,18.4,0,28.1,0c0-1.6,0-2.9,0-4.3c0-9.1,0-18.2,0-27.3c0-6.7,2.3-10.8,7.3-12.6c5.5-2.1,9.8,0.1,13.7,4.1
			c12.4,12.6,25.1,25,37.5,37.6c1.8,1.8,3.6,2.6,6.2,2.6c47.6-0.1,95.3-0.1,142.9,0c19.4,0,35.1,12.4,39.5,31.3
			c0.8,3.5,1,7.2,1.1,10.7c0.2,8.3,0,16.7,0,25.6c1.9,0,3.4,0,5,0c9.8,0.2,19.8-0.4,29.5,0.8c16,2.1,28.8,15,32.2,30.9
			c0.2,0.8,0.5,1.6,0.8,2.4c0,52.4,0,104.8,0,157.2c-0.2,0.6-0.6,1.1-0.7,1.7c-3.5,17.3-16,29.8-33.6,31.9
			c-9.5,1.2-19.2,0.5-28.7,0.7c-1.4,0-2.9,0-4.5,0c0,10.3-0.3,20.1,0.1,29.8c0.2,6.9-1.8,12.1-8.2,15.2
			C365.2,442.7,363.2,442.7,361.2,442.7z M351.5,403.3c0.4-0.2,0.7-0.4,1.1-0.5c0-4.8,0-9.7,0-14.5c0.1-8.8,4.3-13.1,13.1-13.1
			c11.7,0,23.4,0,35.2,0c12.4,0,19.5-7.1,19.5-19.5c0-47.1,0-94.3,0-141.4c0-12.3-6.9-19.3-19.1-19.3c-77.5,0-154.9,0-232.4,0
			c-12.2,0-19.1,6.7-19.1,18.9c0,47.4,0,94.8,0,142.2c0,2.3,0.2,4.8,0.8,7c2.4,7.9,8.9,12.2,18.4,12.2c48.9,0,97.8,0.1,146.7-0.1
			c5.4,0,9.7,1.4,13.3,5.5c2.8,3.2,6,6,9,9C342.4,394.2,346.9,398.8,351.5,403.3z M352.2,172.1c0-10.8,0-21.1,0-31.4
			c0-0.5-0.3-0.9-0.4-1.4c-2.5-7.9-9-12.2-18.5-12.2c-48.9,0-97.8-0.1-146.7,0.1c-5.4,0-9.6-1.5-13.3-5.4
			c-6.7-7.1-13.7-13.8-20.6-20.7c-0.7-0.7-1.6-1.4-3-2.6c0,5.6,0,10.4,0,15.3c-0.1,9.1-4.3,13.3-13.3,13.4c-11.5,0-22.9,0-34.4,0
			c-13.2,0-20.1,6.9-20.1,20c0,30.8,0,61.6,0,92.4c0,16.6-0.1,33.2,0,49.8c0,10.6,7.3,18,17.7,18.1c6.6,0.1,13.2,0,19.8,0
			c2.4,0,4.9,0,7.5,0c0-2.1,0-3.6,0-5.1c0-29.6,0-59.1,0-88.7c0-12.8,4.5-23.6,14.3-32c8.4-7.2,18.3-9.6,29.1-9.6
			c58.7,0.1,117.5,0,176.2,0C348.4,172.1,350.1,172.1,352.2,172.1z"/>
		<path d="M255.2,301.6c13.9-10.4,27.5-20.6,41-30.8c12.4-9.3,24.7-18.6,37.1-27.8c6.2-4.7,13.1-4,17.2,1.5c3.9,5.4,2.5,12-3.6,16.6
			c-29.1,21.9-58.2,43.7-87.4,65.5c-7.8,5.8-15,4.1-19.3-4.5c-7-13.9-13.9-27.8-20.9-41.8c-3.5-7.1-1.9-13.6,4.2-16.7
			c6.2-3.1,12.5-0.5,16.1,6.8C244.7,280.7,249.8,290.9,255.2,301.6z"/>
	</g>
</g>
</svg>
