<?xml version="1.0" encoding="utf-8"?>
<!-- Generator: Adobe Illustrator 26.1.0, SVG Export Plug-In . SVG Version: 6.00 Build 0)  -->
<svg version="1.1" id="Layer_1" xmlns="http://www.w3.org/2000/svg" xmlns:xlink="http://www.w3.org/1999/xlink" x="0px" y="0px"
	 viewBox="0 0 500 500" style="enable-background:new 0 0 500 500;" xml:space="preserve">
<g>
	<g>
		<path d="M464.4,285.8c-9.1,10.9-17.7,22.4-27.4,32.7c-29.5,31.1-62.7,57.5-101.7,76.1c-28,13.3-57.4,21.1-88.7,20.2
			c-31.3-0.9-60.5-10.1-88.1-24.5c-39.1-20.4-72.2-48.4-101.7-80.9c-5.4-5.9-10.5-12.2-15.6-18.4c-4.5-5.5-4.6-11.3-0.2-16.7
			c35.7-44,77.3-81,129.1-105.2c26.4-12.3,54.2-19.3,83.6-18.8c32.4,0.5,62.5,9.8,90.9,24.8c46.1,24.4,83.9,58.6,116.5,98.9
			c1.3,1.6,2.2,3.5,3.3,5.2C464.4,281.3,464.4,283.6,464.4,285.8z M326.2,250.9c12.4,38,5.4,70.7-25.7,95.2
			c-27.1,21.4-58.2,24.1-88,6.8c-39.5-23-49.4-58.6-36.5-101.6c-1.3,0.8-2.6,1.4-3.6,2.3c-13.5,10.8-27.6,21.1-40.4,32.7
			c-11.8,10.7-23.7,20.3-40.6,22.4c0.7,1,1.1,1.6,1.5,2c26.7,26,56.1,48.2,90.3,63.5c41.6,18.6,83.6,20.6,126.4,4.1
			c31.6-12.3,59-31.1,84.3-53.2c5.9-5.2,11.6-10.6,17.5-16.1c-5.7-2-11-3.5-16.1-5.5c-11.8-4.6-20.5-13.5-29.6-21.9
			C353.7,270.3,340.7,260.2,326.2,250.9z M68.7,279.1c10.7,6,22.2,6.2,31.5,0.5c4.1-2.5,7.9-5.7,11.3-9
			c22.1-21.1,45.9-39.7,73.4-53.3c20.2-10,41.3-16.8,64-17.2c27.5-0.4,52.6,8.3,76.4,21.2c24.2,13.1,45.5,30,65.3,49.1
			c5.5,5.3,11.7,9.3,18.9,11.7c8.2,2.6,16.2,2.5,24.4-2c-6.2-6.7-12-13.3-18.1-19.5c-27.8-28.3-58.5-52.6-94.9-69.1
			c-22.7-10.3-46.4-16.5-71.5-16.2c-22.9,0.3-44.6,6-65.5,15.2c-31.3,13.7-58.7,33.4-83.5,56.8C89.7,257.3,79.5,268.2,68.7,279.1z
			 M251.2,226.6c-30.6,0-55.8,25.3-55.7,56c0.1,30.5,25.2,55.6,55.6,55.7c30.6,0.1,55.8-25.1,55.9-55.8
			C307,251.8,281.9,226.6,251.2,226.6z"/>
		<path d="M411.8,174.1c0.8-1.6,1.8-4.9,3.9-7.2c8.5-9.2,17.2-18.1,26-27c5.2-5.3,12.9-5.4,17.9-0.7c5.1,4.8,5.4,12.5,0.3,17.9
			c-8.7,9.3-17.6,18.5-26.6,27.5c-3.9,3.9-8.7,4.8-13.8,2.6C414.6,185.1,412.2,181.1,411.8,174.1z"/>
		<path d="M238.6,90.9c0-6-0.1-11.9,0-17.9c0.1-7.7,5.4-13,12.7-12.9c7,0.1,12.3,5.6,12.3,13c0.1,12.1,0.1,24.1,0,36.2
			c0,7.6-5.5,13.2-12.6,13.2c-7,0-12.3-5.4-12.4-12.9C238.5,103.4,238.6,97.2,238.6,90.9z"/>
		<path d="M52.8,136.4c1.4,0.8,4.7,1.8,7,3.9c8.9,8.5,17.6,17.3,26.2,26.1c5.3,5.4,5.2,13.4,0.2,18.2c-5.1,4.9-12.5,4.8-17.9-0.5
			c-8.8-8.7-17.5-17.4-26.1-26.2c-4-4-5.1-8.8-2.8-14.1C41.6,139,45.6,136.7,52.8,136.4z"/>
		<path d="M238.7,281.2c0-2.6-0.1-5.3,0-7.9c0.3-6.9,5.5-12.1,12.2-12.3c6.6-0.2,12.5,5.4,12.8,12.2c0.2,5.4,0.2,10.8,0,16.2
			c-0.3,6.7-6,12.1-12.5,12.1c-6.6,0-12.1-5.2-12.5-12C238.6,286.7,238.7,283.9,238.7,281.2C238.7,281.2,238.7,281.2,238.7,281.2z"
			/>
	</g>
</g>
</svg>
