<svg xmlns="http://www.w3.org/2000/svg" width="116" height="92" viewBox="0 0 116 92" fill="currentColor">
  <path d="M71.1513 90.531C70.8534 90.6326 70.5455 90.702 70.2329 90.7379C61.959 90.7379 53.6851 90.8372 45.4112 90.7875C43.0118 90.7875 42.1761 89.8029 42.1017 87.3621C42.0355 85.5253 42.1017 83.6885 42.1017 81.86C42.1017 69.9401 42.1017 58.0175 42.1017 46.0921C42.1017 42.7825 43.0201 41.8393 46.2386 41.8228C53.7899 41.7731 61.3412 41.7731 68.8925 41.8228C71.9042 41.8228 72.8391 42.8901 72.8474 45.9597C72.8474 59.5123 72.8474 73.0649 72.8474 86.6175C72.8722 88.0902 72.8143 89.4885 71.1513 90.531Z" fill="currentColor"/>
  <path d="M32.2227 74.0826C32.2227 78.1533 32.2227 82.2323 32.2227 86.3031C32.2227 89.9519 31.3291 90.8041 27.6886 90.8206C20.3525 90.8206 13.008 90.8206 5.65529 90.8206C2.21336 90.8206 1.31151 89.9105 1.29496 86.4603C1.26187 78.1864 1.26187 69.9346 1.29496 61.7049C1.29496 58.2547 2.21336 57.3693 5.65529 57.3528C13.1018 57.3197 20.5483 57.3197 27.9947 57.3528C31.2547 57.3528 32.1317 58.2712 32.2144 61.5477C32.2641 65.726 32.2144 69.9043 32.2227 74.0826Z" fill="currentColor"/>
  <path d="M98.3226 64.9565C101.996 64.9565 105.67 64.9565 109.343 64.9565C112.76 64.9565 113.72 65.9162 113.745 69.3002C113.778 75.0092 113.778 80.7127 113.745 86.4106C113.745 90.0511 112.794 91.0274 109.261 91.044C101.924 91.0826 94.5828 91.0826 87.2356 91.044C83.835 91.044 82.8504 90.0346 82.8256 86.6588C82.776 80.8616 82.776 75.0561 82.8256 69.2423C82.8256 65.9328 83.8681 64.9813 87.3101 64.9565C90.9837 64.9316 94.6573 64.9565 98.3226 64.9565Z" fill="currentColor"/>
  <path d="M25.6284 47.6723L17.7765 43.6678C17.5381 43.5417 17.2725 43.4758 17.0029 43.4758C16.7332 43.4758 16.4677 43.5417 16.2293 43.6678L8.46839 47.8709C8.19632 48.019 7.88814 48.0878 7.57892 48.0694C7.26969 48.051 6.97184 47.9462 6.71924 47.7669C6.46665 47.5876 6.26945 47.341 6.1501 47.0551C6.03076 46.7693 5.99404 46.4556 6.04414 46.15L7.42588 37.4376C7.46863 37.1715 7.44577 36.899 7.35925 36.6438C7.27273 36.3885 7.12519 36.1583 6.92945 35.9731L0.525472 29.9166C0.297951 29.7042 0.134959 29.4319 0.0552184 29.131C-0.0245223 28.8301 -0.0177786 28.5128 0.0746734 28.2156C0.167125 27.9184 0.341537 27.6533 0.577878 27.4507C0.814218 27.2481 1.1029 27.1163 1.41078 27.0704L10.1314 25.6721C10.3982 25.6306 10.6508 25.5245 10.8671 25.363C11.0834 25.2014 11.2569 24.9894 11.3725 24.7454L15.1785 16.786C15.314 16.5062 15.5256 16.2703 15.789 16.1052C16.0524 15.9401 16.3569 15.8525 16.6678 15.8525C16.9787 15.8525 17.2832 15.9401 17.5466 16.1052C17.81 16.2703 18.0216 16.5062 18.1571 16.786L22.1534 24.6462C22.2754 24.8871 22.4546 25.0945 22.6753 25.2503C22.8959 25.406 23.1514 25.5054 23.4193 25.5397L32.1648 26.6981C32.4729 26.7373 32.7638 26.8624 33.0042 27.0592C33.2446 27.256 33.4247 27.5165 33.524 27.8108C33.6232 28.1052 33.6377 28.4215 33.5656 28.7237C33.4935 29.0259 33.3377 29.3017 33.1163 29.5195L26.8778 35.7497C26.6853 35.9399 26.5425 36.1743 26.4617 36.4325C26.3809 36.6907 26.3647 36.9648 26.4144 37.2307L28.0196 45.9017C28.0763 46.2067 28.0463 46.5215 27.9327 46.8102C27.8192 47.0989 27.6268 47.3499 27.3775 47.5345C27.1282 47.7192 26.832 47.83 26.5227 47.8543C26.2134 47.8787 25.9035 47.8156 25.6284 47.6723Z" fill="currentColor"/>
  <path d="M66.5014 31.7783L58.6412 27.7737C58.4038 27.6491 58.1398 27.5839 57.8717 27.5839C57.6036 27.5839 57.3396 27.6491 57.1022 27.7737L49.3413 31.9934C49.0693 32.1415 48.7611 32.2103 48.4519 32.1919C48.1426 32.1735 47.8448 32.0687 47.5922 31.8894C47.3396 31.7101 47.1424 31.4634 47.0231 31.1776C46.9037 30.8917 46.867 30.5781 46.9171 30.2724L48.2988 21.5352C48.3416 21.2691 48.3187 20.9966 48.2322 20.7414C48.1457 20.4862 47.9981 20.256 47.8024 20.0707L41.4067 13.9977C41.1792 13.7853 41.0162 13.513 40.9364 13.2121C40.8567 12.9112 40.8634 12.5939 40.9559 12.2967C41.0484 11.9995 41.2228 11.7343 41.4591 11.5318C41.6954 11.3292 41.9841 11.1974 42.292 11.1515L50.9961 9.80286C51.2629 9.76136 51.5154 9.65522 51.7318 9.49369C51.9481 9.33217 52.1216 9.12017 52.2372 8.87618L56.0432 0.924991C56.1796 0.647433 56.391 0.413652 56.6535 0.250157C56.916 0.0866616 57.2191 0 57.5283 0C57.8376 0 58.1407 0.0866616 58.4032 0.250157C58.6657 0.413652 58.8771 0.647433 59.0135 0.924991L63.018 8.78517C63.1393 9.02506 63.3172 9.2318 63.5364 9.38749C63.7555 9.54319 64.0092 9.64315 64.2757 9.67875L73.0212 10.8371C73.33 10.875 73.6219 10.9992 73.8634 11.1954C74.1049 11.3917 74.2861 11.652 74.3863 11.9466C74.4865 12.2412 74.5017 12.5581 74.4299 12.8609C74.3582 13.1637 74.2026 13.4401 73.9809 13.6585L67.7424 19.8804C67.5515 20.0714 67.4102 20.3062 67.3309 20.5644C67.2515 20.8226 67.2366 21.0962 67.2874 21.3615L68.8842 30.0325C68.9343 30.3345 68.8997 30.6445 68.7842 30.928C68.6686 31.2115 68.4767 31.4574 68.2298 31.6383C67.9828 31.8192 67.6905 31.9281 67.3854 31.9528C67.0802 31.9775 66.7742 31.9171 66.5014 31.7783Z" fill="currentColor"/>
  <path d="M107.258 55.4581L99.4065 51.4535C99.1681 51.3275 98.9025 51.2616 98.6329 51.2616C98.3632 51.2616 98.0977 51.3275 97.8593 51.4535L90.1067 55.6567C89.8344 55.8071 89.5252 55.8778 89.2146 55.8605C88.904 55.8433 88.6045 55.7389 88.3506 55.5592C88.0966 55.3795 87.8985 55.1319 87.7788 54.8448C87.6592 54.5576 87.6229 54.2425 87.6741 53.9357L89.0559 45.1985C89.0972 44.9337 89.0737 44.6628 88.9872 44.4092C88.9007 44.1555 88.7539 43.9267 88.5594 43.7423L82.172 37.661C81.9471 37.4487 81.7861 37.1777 81.7074 36.8786C81.6287 36.5795 81.6354 36.2644 81.7267 35.9689C81.818 35.6734 81.9903 35.4094 82.2241 35.2069C82.4578 35.0044 82.7436 34.8714 83.0491 34.8231L91.7697 33.4413C92.0342 33.3994 92.2845 33.2939 92.4992 33.134C92.714 32.974 92.8867 32.7643 93.0025 32.5229L96.8085 24.5635C96.944 24.2837 97.1556 24.0477 97.419 23.8826C97.6824 23.7175 97.9869 23.63 98.2978 23.63C98.6087 23.63 98.9132 23.7175 99.1766 23.8826C99.44 24.0477 99.6516 24.2837 99.7871 24.5635L103.783 32.4236C103.905 32.6646 104.085 32.872 104.305 33.0277C104.526 33.1835 104.781 33.2829 105.049 33.3172L113.795 34.4755C114.091 34.5265 114.368 34.6574 114.596 34.854C114.824 35.0506 114.993 35.3056 115.087 35.5915C115.18 35.8774 115.194 36.1834 115.127 36.4766C115.06 36.7698 114.914 37.0391 114.705 37.2556L108.466 43.4941C108.277 43.6842 108.136 43.9176 108.057 44.1742C107.978 44.4308 107.962 44.7028 108.011 44.9668L109.608 53.6378C109.671 53.9411 109.647 54.2558 109.54 54.5463C109.432 54.8367 109.246 55.0912 109.001 55.2808C108.756 55.4705 108.463 55.5876 108.155 55.6189C107.847 55.6503 107.536 55.5945 107.258 55.4581Z" fill="currentColor"/>
</svg>