


<svg xmlns="http://www.w3.org/2000/svg" width="64" height="92" viewBox="0 0 64 92" fill="#de7826">
  <g clip-path="url(#clip0_106_6)">
    <path d="M27.49 22.08C27.5672 22.2743 27.6608 22.4617 27.77 22.64C27.6908 22.4466 27.5972 22.2594 27.49 22.08ZM27.49 22.08C27.5672 22.2743 27.6608 22.4617 27.77 22.64C27.6908 22.4466 27.5972 22.2594 27.49 22.08ZM27.49 22.08C27.5672 22.2743 27.6608 22.4617 27.77 22.64C27.6908 22.4466 27.5972 22.2594 27.49 22.08ZM27.49 22.08C27.5672 22.2743 27.6608 22.4617 27.77 22.64C27.6908 22.4466 27.5972 22.2594 27.49 22.08Z" fill="#de7826"/>
    <path d="M27.77 22.64C27.6608 22.4617 27.5672 22.2743 27.49 22.08C27.5972 22.2594 27.6908 22.4466 27.77 22.64Z" fill="#de7826"/>
    <path d="M38.81 37.11C38.9468 37.219 39.0905 37.3192 39.24 37.41C39.1031 37.301 38.9595 37.2009 38.81 37.11ZM31.7 40.51C31.6706 40.8427 31.6706 41.1773 31.7 41.51C31.7391 41.1778 31.7391 40.8422 31.7 40.51Z" fill="#de7826"/>
    <path d="M31.7 41.52C31.6706 41.1873 31.6706 40.8527 31.7 40.52C31.7391 40.8522 31.7391 41.1878 31.7 41.52Z" fill="#de7826"/>
    <path d="M39.24 37.41C39.0905 37.3192 38.9469 37.219 38.81 37.11C38.9595 37.2009 39.1031 37.301 39.24 37.41Z" fill="#de7826"/>
    <path d="M31.7 41.52C31.6706 41.1873 31.6706 40.8527 31.7 40.52C31.7391 40.8522 31.7391 41.1878 31.7 41.52Z" fill="#de7826"/>
    <path opacity="0.55" d="M49.76 33.29C49.76 34.4176 49.5377 35.5341 49.1059 36.5757C48.6741 37.6174 48.0412 38.5636 47.2434 39.3605C46.4456 40.1574 45.4986 40.7892 44.4565 41.2198C43.4143 41.6504 42.2976 41.8713 41.17 41.87H40.86C39.8831 41.8304 38.9198 41.6276 38.01 41.27C37.3098 41.0083 36.6394 40.6731 36.01 40.27C35.9489 41.4327 35.6989 42.5776 35.27 43.66C35.0397 44.2281 34.7515 44.7709 34.41 45.28C33.3089 44.7775 32.4501 43.8613 32.02 42.73C31.8754 42.3569 31.778 41.9672 31.73 41.57C31.7691 41.2378 31.7691 40.9022 31.73 40.57C31.8536 39.4136 32.4025 38.3445 33.27 37.57C33.6846 37.2087 34.1581 36.9212 34.67 36.72C34.9665 36.6031 35.275 36.5192 35.59 36.47C36.7188 36.287 37.8756 36.5254 38.84 37.14C38.9768 37.249 39.1205 37.3492 39.27 37.44C39.5184 37.6009 39.7832 37.735 40.06 37.84C41.1993 38.2897 42.4704 38.2697 43.5949 37.7842C44.7195 37.2988 45.6058 36.3876 46.06 35.25C46.3453 34.5345 46.4472 33.7589 46.3564 32.9939C46.2656 32.229 45.9849 31.4988 45.54 30.87C46.4482 29.9436 47.1324 28.8216 47.54 27.59C48.9527 29.1542 49.7426 31.1823 49.76 33.29Z" fill="#de7826"/>
    <path d="M31.7 41.52C31.6706 41.1873 31.6706 40.8527 31.7 40.52C31.7391 40.8522 31.7391 41.1878 31.7 41.52Z" fill="#de7826"/>
    <path d="M38.81 37.11C38.9469 37.219 39.0905 37.3192 39.24 37.41C39.1031 37.301 38.9595 37.2009 38.81 37.11ZM38.81 37.11C38.9469 37.219 39.0905 37.3192 39.24 37.41C39.1031 37.301 38.9595 37.2009 38.81 37.11ZM38.81 37.11C38.9469 37.219 39.0905 37.3192 39.24 37.41C39.1031 37.301 38.9595 37.2009 38.81 37.11ZM38.81 37.11C38.9469 37.219 39.0905 37.3192 39.24 37.41C39.1031 37.301 38.9595 37.2009 38.81 37.11ZM38.81 37.11C38.9469 37.219 39.0905 37.3192 39.24 37.41C39.1031 37.301 38.9595 37.2009 38.81 37.11ZM38.81 37.11C38.9469 37.219 39.0905 37.3192 39.24 37.41C39.1031 37.301 38.9595 37.2009 38.81 37.11ZM38.81 37.11C38.9469 37.219 39.0905 37.3192 39.24 37.41C39.1031 37.301 38.9595 37.2009 38.81 37.11Z" fill="#de7826"/>
    <path d="M39.24 37.41C39.0905 37.3192 38.9469 37.219 38.81 37.11C38.9595 37.2009 39.1031 37.301 39.24 37.41Z" fill="#de7826"/>
    <path opacity="0.75" d="M44.64 41.14C44.5068 42.744 43.9251 44.2781 42.9613 45.5672C41.9976 46.8563 40.6907 47.8484 39.19 48.43C37.9795 48.8986 36.6787 49.0872 35.385 48.9815C34.0914 48.8759 32.8384 48.4788 31.72 47.82C30.0627 46.838 28.7841 45.3269 28.09 43.53C27.6815 42.4811 27.4418 41.374 27.38 40.25C26.7876 40.6441 26.1579 40.979 25.5 41.25C24.5447 41.6331 23.5289 41.843 22.5 41.87C22.3445 41.0133 22.4311 40.1302 22.75 39.32C23.0295 38.6143 23.4796 37.989 24.06 37.5C24.2535 37.3356 24.4609 37.1884 24.68 37.06C25.6167 36.4983 26.7218 36.2857 27.8 36.46C28.6708 36.6027 29.4826 36.9913 30.14 37.58C30.9962 38.3357 31.5384 39.3845 31.66 40.52C31.6306 40.8527 31.6306 41.1873 31.66 41.52C31.7263 41.9374 31.8474 42.3442 32.02 42.73C32.3824 43.6697 33.0413 44.4655 33.8969 44.9969C34.7524 45.5283 35.7579 45.7663 36.7609 45.6747C37.7638 45.5831 38.7096 45.167 39.4547 44.4894C40.1999 43.8118 40.7038 42.9098 40.89 41.92H41.2C42.3885 41.9025 43.5602 41.6368 44.64 41.14Z" fill="#de7826"/>
    <path d="M27.49 22.08C27.5672 22.2743 27.6608 22.4617 27.77 22.64C27.6908 22.4466 27.5972 22.2594 27.49 22.08Z" fill="#de7826"/>
    <path opacity="0.4" d="M31.72 47.82C30.3879 48.6094 28.8685 49.0273 27.32 49.03C26.234 49.032 25.1577 48.8249 24.15 48.42C22.6567 47.8277 21.3602 46.827 20.4088 45.5326C19.4574 44.2381 18.8895 42.702 18.77 41.1C18.77 40.88 18.77 40.66 18.77 40.45C18.7731 39.4252 18.9594 38.4092 19.32 37.45L19.38 37.29C19.7708 36.2554 20.3245 35.2899 21.02 34.43C21.3728 33.9955 21.7608 33.5908 22.18 33.22C21.302 32.9739 20.4586 32.6178 19.67 32.16C19.0394 31.7837 18.4583 31.3302 17.94 30.81C18.4204 30.1412 19.0698 29.6119 19.8218 29.2763C20.5738 28.9407 21.4014 28.8109 22.22 28.9C22.4671 28.9297 22.7112 28.9799 22.95 29.05C24.0056 29.3454 24.9229 30.0041 25.54 30.91C25.7208 31.1846 25.8748 31.476 26 31.78C26.0801 31.9787 26.147 32.1824 26.2 32.39V32.55C26.2736 32.8781 26.3072 33.2138 26.3 33.55C26.2937 34.2183 26.1441 34.8776 25.8612 35.4831C25.5782 36.0886 25.1686 36.6264 24.66 37.06C24.4409 37.1884 24.2335 37.3356 24.04 37.5C23.4596 37.989 23.0095 38.6144 22.73 39.32C22.4111 40.1302 22.3245 41.0133 22.48 41.87C22.6065 42.5605 22.8883 43.2131 23.3041 43.7786C23.7199 44.3442 24.2589 44.8077 24.8802 45.1343C25.5016 45.4609 26.189 45.6419 26.8906 45.6637C27.5922 45.6854 28.2896 45.5474 28.93 45.26C29.6549 46.3129 30.6087 47.1881 31.72 47.82Z" fill="#de7826"/>
    <path opacity="0.6" d="M28.02 25.43C27.9118 25.904 27.7332 26.359 27.49 26.78C27.0351 27.5534 26.3666 28.1789 25.5648 28.5816C24.763 28.9843 23.862 29.1469 22.97 29.05C22.7312 28.9799 22.487 28.9297 22.24 28.9C21.1948 28.7827 20.1408 29.0247 19.2515 29.5862C18.3622 30.1477 17.6906 30.9953 17.3472 31.9894C17.0038 32.9835 17.0091 34.0649 17.3622 35.0556C17.7153 36.0463 18.3952 36.8872 19.29 37.44C18.9294 38.3993 18.7431 39.4152 18.74 40.44C18.74 40.65 18.74 40.87 18.74 41.09C17.2206 40.401 15.9347 39.2845 15.0393 37.8768C14.1439 36.4691 13.6779 34.8312 13.698 33.163C13.7182 31.4948 14.2237 29.8685 15.1528 28.4829C16.0819 27.0972 17.3944 26.0121 18.93 25.36L19.07 25.3C20.3425 24.7924 21.6999 24.5311 23.07 24.53C23.31 24.53 23.55 24.53 23.79 24.53C23.3572 23.3414 23.1405 22.0849 23.15 20.82C23.1507 20.4855 23.1741 20.1514 23.22 19.82C24.0665 19.776 24.9089 19.9642 25.6562 20.3643C26.4035 20.7644 27.0273 21.3611 27.46 22.09C27.5372 22.2843 27.6308 22.4717 27.74 22.65C28.1148 23.5264 28.2125 24.4965 28.02 25.43Z" fill="#de7826"/>
    <path d="M27.77 22.64C27.6608 22.4617 27.5672 22.2743 27.49 22.08C27.5972 22.2594 27.6908 22.4466 27.77 22.64Z" fill="#de7826"/>
    <path opacity="0.25" d="M36.4 20.31C36.3948 20.8888 36.2829 21.4617 36.07 22C35.9635 22.2597 35.8365 22.5105 35.69 22.75C35.2178 23.5004 34.5413 24.1006 33.74 24.48C33.1163 24.7795 32.4317 24.9301 31.74 24.92C31.0477 24.9248 30.3635 24.7709 29.74 24.47C28.9077 24.0702 28.212 23.4336 27.74 22.64C27.6608 22.4466 27.5672 22.2594 27.46 22.08C27.0273 21.3511 26.4035 20.7544 25.6562 20.3543C24.9089 19.9542 24.0665 19.766 23.22 19.81C22.5547 19.8468 21.9051 20.0265 21.3154 20.3369C20.7258 20.6472 20.2099 21.0809 19.8028 21.6084C19.3958 22.136 19.1071 22.745 18.9565 23.3941C18.8059 24.0432 18.7968 24.7171 18.93 25.37C17.7844 25.8672 16.7608 26.6077 15.93 27.54C15.4863 26.2498 15.3567 24.8724 15.552 23.522C15.7473 22.1717 16.2617 20.8874 17.0527 19.7758C17.8437 18.6641 18.8884 17.7571 20.1001 17.13C21.3118 16.5029 22.6556 16.1738 24.02 16.17H24.57C25.8539 16.2497 27.1026 16.6226 28.22 17.26L28.34 17.33C29.3008 17.8878 30.168 18.5931 30.91 19.42C31.2082 19.7498 31.4822 20.1008 31.73 20.47C31.98 20.12 32.25 19.78 32.53 19.47C33.2766 18.6452 34.1429 17.9373 35.1 17.37L35.27 17.28C35.997 18.1223 36.398 19.1973 36.4 20.31Z" fill="#de7826"/>
    <path opacity="0.8" d="M48.02 24.78C48.0225 26.2791 47.6313 27.7526 46.8854 29.053C46.1396 30.3535 45.0653 31.4352 43.77 32.19C42.9826 32.6527 42.1391 33.0123 41.26 33.26C42.5023 34.3781 43.4647 35.7722 44.07 37.33C44.0912 37.3784 44.1079 37.4286 44.12 37.48C43.5108 37.8532 42.8225 38.0784 42.1104 38.1375C41.3984 38.1965 40.6824 38.0878 40.02 37.82C39.7433 37.715 39.4785 37.5809 39.23 37.42C39.0932 37.3111 38.9495 37.2109 38.8 37.12C38.2781 36.6918 37.8557 36.1552 37.5622 35.5473C37.2686 34.9395 37.1109 34.275 37.1 33.6C37.097 33.2404 37.1339 32.8815 37.21 32.53C37.21 32.53 37.21 32.43 37.21 32.38C37.21 32.33 37.32 32.01 37.39 31.83C37.5185 31.5161 37.6758 31.2148 37.86 30.93C38.4498 30.0661 39.3126 29.4252 40.31 29.11C40.6495 29.0848 40.985 29.0211 41.31 28.92C42.1019 28.6718 42.8124 28.2149 43.3666 27.5972C43.9209 26.9796 44.2986 26.2241 44.46 25.41C44.588 24.7611 44.5761 24.0923 44.4251 23.4483C44.274 22.8044 43.9873 22.2 43.5841 21.6757C43.1809 21.1513 42.6705 20.719 42.0869 20.4077C41.5034 20.0963 40.8601 19.913 40.2 19.87C40.0462 18.5743 39.5944 17.3319 38.88 16.24C40.4604 16.1467 42.0358 16.4925 43.4318 17.239C44.8279 17.9856 45.9901 19.1038 46.79 20.47C47.5769 21.7714 48.0016 23.2594 48.02 24.78Z" fill="#de7826"/>
    <path opacity="0.5" d="M44.53 25.39C44.3686 26.2041 43.9909 26.9596 43.4366 27.5772C42.8823 28.1949 42.1719 28.6518 41.38 28.9C41.0549 29.001 40.7194 29.0648 40.38 29.09C39.3557 29.1779 38.3315 28.921 37.47 28.36C37.1328 28.1384 36.8268 27.8727 36.56 27.57L36.49 27.5C35.936 26.8564 35.5701 26.0726 35.4325 25.2346C35.2949 24.3966 35.3909 23.537 35.71 22.75C35.8565 22.5105 35.9835 22.2597 36.09 22C36.3029 21.4617 36.4148 20.8888 36.42 20.31C36.4208 19.3617 36.1304 18.436 35.5881 17.6581C35.0458 16.8802 34.2777 16.2876 33.3876 15.9604C32.4976 15.6332 31.5286 15.5871 30.6115 15.8285C29.6944 16.0699 28.8736 16.587 28.26 17.31C27.1426 16.6726 25.8939 16.2997 24.61 16.22C25.3907 15.0312 26.4547 14.0552 27.7063 13.3796C28.9579 12.7041 30.3577 12.3503 31.78 12.35C33.2014 12.3577 34.5987 12.7181 35.8466 13.3988C37.0945 14.0794 38.1539 15.0591 38.93 16.25C39.6444 17.3419 40.0961 18.5843 40.25 19.88C40.2959 20.2114 40.3193 20.5455 40.32 20.88C40.3094 21.9905 40.1307 23.093 39.79 24.15C39.79 24.27 39.71 24.4 39.66 24.52C41.2474 24.4132 42.8388 24.6591 44.32 25.24L44.53 25.39Z" fill="#de7826"/>
    <path d="M31.74 6.30272e-06C23.3272 0.00530694 15.2607 3.3503 9.31291 9.29997C3.36512 15.2496 0.0226684 23.3172 0.0200195 31.73C0.0200195 49.25 31.76 91.47 31.76 91.47C31.76 91.47 63.5 49.25 63.5 31.73C63.4987 27.561 62.6761 23.4331 61.0792 19.5821C59.4823 15.7311 57.1423 12.2324 54.193 9.28583C51.2437 6.3393 47.7428 4.00266 43.8902 2.40938C40.0377 0.816094 35.909 -0.00262087 31.74 6.30272e-06ZM50.24 36.73C49.3665 38.9639 47.6444 40.7615 45.45 41.73C45.3228 43.2699 44.8064 44.7522 43.9494 46.0379C43.0923 47.3236 41.9226 48.3704 40.5501 49.0801C39.1776 49.7899 37.6473 50.1393 36.1028 50.0955C34.5582 50.0518 33.0501 49.6163 31.72 48.83C30.2988 49.6782 28.6751 50.1273 27.02 50.13C24.7211 50.1242 22.5088 49.2523 20.8241 47.688C19.1394 46.1238 18.1061 43.9822 17.93 41.69C16.6248 41.098 15.4777 40.2064 14.5819 39.0877C13.6861 37.9689 13.0669 36.6546 12.7746 35.2516C12.4823 33.8485 12.5251 32.3963 12.8997 31.0129C13.2742 29.6295 13.9698 28.354 14.93 27.29C14.4563 25.9164 14.3181 24.4495 14.5267 23.0116C14.7354 21.5737 15.285 20.2066 16.1296 19.0243C16.9742 17.8421 18.0893 16.879 19.3819 16.2155C20.6745 15.5519 22.1071 15.2072 23.56 15.21C23.7532 15.2 23.9468 15.2 24.14 15.21C24.9695 13.9466 26.1003 12.9094 27.4306 12.192C28.7608 11.4745 30.2486 11.0992 31.76 11.1C33.2706 11.1067 34.7558 11.4885 36.0824 12.2111C37.4089 12.9337 38.5352 13.9745 39.36 15.24C41.0402 15.1431 42.7146 15.5119 44.1986 16.306C45.6825 17.1 46.9184 18.2883 47.77 19.74C48.5858 21.136 49.0171 22.7232 49.02 24.34C49.0247 25.3611 48.8557 26.3756 48.52 27.34C50.0167 29.0119 50.846 31.176 50.85 33.42C50.8566 34.5519 50.6497 35.6749 50.24 36.73Z" fill="#de7826"/>
  </g>
  <defs>
    <clipPath id="clip0_106_6">
      <rect width="63.48" height="91.49" fill="white"/>
    </clipPath>
  </defs>
</svg>