<?xml version="1.0" encoding="utf-8"?>
<!-- Generator: Adobe Illustrator 26.1.0, SVG Export Plug-In . SVG Version: 6.00 Build 0)  -->
<svg version="1.1" id="Layer_1" xmlns="http://www.w3.org/2000/svg" xmlns:xlink="http://www.w3.org/1999/xlink" x="0px" y="0px"
	 viewBox="0 0 500 500" style="enable-background:new 0 0 500 500;" xml:space="preserve">
<g>
	<g>
		<path d="M421.3,455.6c-15.4-5.3-30.8-10.6-46.2-15.9c-11.8-4.1-23.6-8-35.4-12.2c-3.1-1.1-5.6-1-8.6,0.4
			c-28.8,13.5-59.1,19.6-90.8,18.8c-88.8-2.3-168.2-66.4-187.7-153c-17-75.4,3.1-140.6,58.9-193.9c29.2-27.9,64.6-44.4,104.6-50.5
			c99.2-15,193,44,222.1,140.1c14.6,48.3,10.7,95.5-10.1,141.4c-1.5,3.3-1.7,6-0.5,9.4c9.3,26.8,18.4,53.7,27.5,80.6
			c0.1,0.2,0.3,0.4,0.5,0.6c0,3.5,0,6.9,0,10.4c-2.3,7.2-5.3,13.9-11.9,18.1c-3.7,2.4-8,3.9-12,5.8
			C428.2,455.6,424.7,455.6,421.3,455.6z M71,246.3c0.1,16.2,2.2,32,6.6,47.4c11.3,39.4,33.7,70.9,66.7,95.1
			c27.4,20.1,58.2,31.1,92,33.2c31.5,1.9,61.6-4.3,89.8-18.7c5.1-2.6,9.9-2.9,15.3-1c20.3,7.1,40.6,14,61,21
			c7.2,2.5,14.2,5.1,21.5,7.3c1.8,0.5,4.6,0.2,5.8-0.9c1.2-1.1,0.9-3.8,1.1-5.8c0.1-0.7-0.5-1.5-0.7-2.3
			c-9.2-26.6-18.2-53.2-27.5-79.8c-2-5.7-1.7-10.6,1-16c17.2-34.3,22.8-70.5,16.4-108.4c-7.2-42.5-27.9-77.5-60.6-105.1
			c-30.7-26-66.5-39.7-107-41c-31.4-1-61.2,5.3-88.5,20.8C103.8,126,73.6,178,71,246.3z"/>
		<path d="M256.8,268.4c0,12.5,0.2,25-0.2,37.4c-0.1,3.2-1.5,6.8-3.5,9.3c-3,3.8-7.7,4.7-12.3,3c-4.6-1.7-7.4-5-8-10
			c-0.1-1.1-0.2-2.1-0.2-3.2c0-15.3-0.1-30.6,0-45.9c0-9.2,4.4-13.7,13.5-14.2c19.1-1.1,33.5-15,34.4-34.7
			c0.8-16.5-9.6-32.1-28.1-36.2c-21.7-4.8-42.4,10.8-43.6,33.8c-0.4,7-3.7,11.6-9.2,12.9c-8.2,2-15.4-4-15.4-12.6
			c0.3-33.6,29.4-61,63-59.2c29.7,1.6,54.1,24,57.3,52.5c3.4,30.7-15,58-44.5,65.9C259.1,267.6,258.1,267.9,256.8,268.4z"/>
		<path d="M256.8,348.9c0,6.4-5.4,11.7-12.1,11.7c-6.7,0-12-5.4-12-12.2c-0.1-6.6,5.5-12,12.3-11.9
			C251.7,336.6,256.8,342,256.8,348.9z"/>
	</g>
</g>
</svg>
