<svg xmlns="http://www.w3.org/2000/svg" width="92" height="91" viewBox="0 0 92 91" fill="currentColor">
  <g clip-path="url(#clip0_107_34)">
    <path d="M60.9665 47.4256L56.7554 55.905L49.6416 56.9844C47.5974 57.2951 45.5531 57.7285 43.5008 57.9247C39.5595 58.309 38.194 63.8774 40.9496 66.3959C43.4026 68.62 45.5859 71.1058 48.1125 73.2072C48.9263 73.7743 49.5395 74.5846 49.8642 75.5218C50.1889 76.4591 50.2082 77.4751 49.9196 78.424C49.6906 79.3398 49.5026 80.2556 49.2327 81.4249H2.72288C0.776796 81.3677 0.155351 80.9016 0.130821 78.9719C0.0654062 73.338 -0.310728 67.6551 0.5969 62.0867C1.46539 56.7482 3.89258 51.7855 7.57339 47.8224C11.2542 43.8594 16.0244 41.0728 21.2843 39.813C23.8129 39.2481 26.3959 38.9629 28.9869 38.9626C34.1873 38.9626 39.396 38.9626 44.5719 39.3469C49.4349 39.8134 54.0504 41.7114 57.8348 44.8009C58.8569 45.5531 59.8054 46.4362 60.9665 47.4256Z" fill="currentColor"/>
    <path d="M67.001 83.9352L55.4798 89.9861C54.9544 90.2964 54.408 90.5697 53.8444 90.8038C52.1273 91.4007 51.2115 90.6402 51.4977 88.7595C52.111 84.7447 52.7406 80.7299 53.5092 76.7478C53.7093 76.051 53.7005 75.3108 53.4839 74.6189C53.2673 73.927 52.8525 73.314 52.2908 72.8556C49.5352 70.3371 46.935 67.6551 44.2775 65.0386C43.8162 64.6388 43.392 64.1982 43.0101 63.7221C42.8254 63.5059 42.7032 63.2433 42.6567 62.9627C42.6103 62.6821 42.6413 62.3942 42.7465 62.1299C42.8517 61.8657 43.027 61.6352 43.2536 61.4633C43.4802 61.2914 43.7494 61.1847 44.0322 61.1546C45.9783 60.7621 47.9489 60.4677 49.9114 60.1815C52.8223 59.7563 55.7333 59.3638 58.7505 58.9713C59.0858 58.4071 59.4783 57.8429 59.7726 57.2297C61.5797 53.5828 63.3623 49.9278 65.1612 46.2727C65.3281 45.8777 65.5423 45.5043 65.799 45.1607C65.9291 44.9529 66.11 44.7815 66.3245 44.6628C66.5391 44.544 66.7803 44.4817 67.0255 44.4817C67.2707 44.4817 67.5119 44.544 67.7264 44.6628C67.941 44.7815 68.1218 44.9529 68.252 45.1607C68.6596 45.7198 69.0076 46.32 69.2905 46.9514C71.2529 50.9008 73.2072 54.8584 75.2187 58.9305C79.2308 59.4756 83.2429 60.0452 87.255 60.6394C88.2008 60.7593 89.1397 60.9286 90.0678 61.1464C90.3457 61.1957 90.6054 61.3183 90.8201 61.5014C91.0348 61.6846 91.1968 61.9218 91.2892 62.1884C91.3817 62.455 91.4014 62.7415 91.3463 63.0183C91.2911 63.2951 91.1631 63.5522 90.9754 63.763C90.5847 64.2287 90.1611 64.6659 89.708 65.0713L80.3537 74.8835C80.4682 75.7011 80.6317 77.1321 80.877 78.563C81.4549 81.8828 82.0627 85.1972 82.7005 88.5061C82.8558 89.3237 82.9703 90.2232 82.1772 90.5912C81.4794 90.8849 80.696 90.9024 79.9858 90.6402C78.0152 89.7489 76.1345 88.6696 74.2129 87.6639L67.001 83.9352Z" fill="currentColor"/>
    <path d="M34.4654 0.0163589C43.975 -0.417013 52.3481 8.28313 52.3154 17.8091C52.3587 20.1912 51.9261 22.5579 51.0429 24.7705C50.1596 26.9832 48.8436 28.9973 47.1718 30.6947C45.5001 32.3921 43.5063 33.7387 41.3073 34.6555C39.1084 35.5723 36.7485 36.0409 34.3661 36.0338C31.9837 36.0268 29.6267 35.5442 27.4332 34.6143C25.2397 33.6844 23.254 32.326 21.5923 30.6187C19.9307 28.9114 18.6266 26.8896 17.7565 24.6717C16.8864 22.4538 16.4679 20.0846 16.5254 17.7029C16.5581 7.99695 24.8821 -0.384306 34.4654 0.0163589Z" fill="currentColor"/>
  </g>
  <defs>
    <clipPath id="clip0_107_34">
      <rect width="91.3352" height="91" fill="white"/>
    </clipPath>
  </defs>
</svg>